<svg xmlns="http://www.w3.org/2000/svg" viewBox="0 0 720 200" width="720" height="200" role="img" aria-label="Internships posted per week, last 16 weeks"><title>Internships posted per week</title><g font-family="-apple-system,Segoe UI,Roboto,sans-serif" font-size="11"><line x1="38" y1="174.0" x2="706" y2="174.0" stroke="#d0d7de" stroke-width="1"/><text x="32" y="178.0" text-anchor="end" fill="#57606a">0</text><line x1="38" y1="98.0" x2="706" y2="98.0" stroke="#d0d7de" stroke-width="1"/><text x="32" y="102.0" text-anchor="end" fill="#57606a">56</text><line x1="38" y1="22.0" x2="706" y2="22.0" stroke="#d0d7de" stroke-width="1"/><text x="32" y="26.0" text-anchor="end" fill="#57606a">112</text><path d="M38.0,174 L38.0,172.6 L82.5,172.6 L127.1,171.3 L171.6,169.9 L216.1,169.9 L260.7,169.9 L305.2,171.3 L349.7,167.2 L394.3,22.0 L438.8,89.9 L483.3,115.6 L527.9,115.6 L572.4,106.1 L616.9,92.6 L661.5,26.1 L706.0,164.5 L706.0,174 Z" fill="#0969da" fill-opacity="0.12"/><polyline points="38.0,172.6 82.5,172.6 127.1,171.3 171.6,169.9 216.1,169.9 260.7,169.9 305.2,171.3 349.7,167.2 394.3,22.0 438.8,89.9 483.3,115.6 527.9,115.6 572.4,106.1 616.9,92.6 661.5,26.1 706.0,164.5" fill="none" stroke="#0969da" stroke-width="2" stroke-linejoin="round" stroke-linecap="round"/><circle cx="394.3" cy="22.0" r="3.5" fill="#0969da"/><text x="394.3" y="13.0" text-anchor="middle" fill="#24292f" font-weight="600">112</text><circle cx="706.0" cy="164.5" r="3.5" fill="#0969da"/><text x="706.0" y="155.5" text-anchor="middle" fill="#24292f" font-weight="600">7</text><text x="38.0" y="192" text-anchor="middle" fill="#57606a">Jun 01</text><text x="216.1" y="192" text-anchor="middle" fill="#57606a">Jun 29</text><text x="394.3" y="192" text-anchor="middle" fill="#57606a">Jul 27</text><text x="572.4" y="192" text-anchor="middle" fill="#57606a">Aug 24</text><text x="706.0" y="192" text-anchor="middle" fill="#57606a">Sep 14</text></g></svg>