<svg xmlns="http://www.w3.org/2000/svg" viewBox="0 0 720 200" width="720" height="200" role="img" aria-label="Internships posted per week, last 16 weeks"><title>Internships posted per week</title><g font-family="-apple-system,Segoe UI,Roboto,sans-serif" font-size="11"><line x1="38" y1="174.0" x2="706" y2="174.0" stroke="#d0d7de" stroke-width="1"/><text x="32" y="178.0" text-anchor="end" fill="#57606a">0</text><line x1="38" y1="98.0" x2="706" y2="98.0" stroke="#d0d7de" stroke-width="1"/><text x="32" y="102.0" text-anchor="end" fill="#57606a">56</text><line x1="38" y1="22.0" x2="706" y2="22.0" stroke="#d0d7de" stroke-width="1"/><text x="32" y="26.0" text-anchor="end" fill="#57606a">111</text><path d="M38.0,174 L38.0,169.9 L82.5,169.9 L127.1,172.6 L171.6,171.3 L216.1,168.5 L260.7,83.6 L305.2,137.0 L349.7,115.1 L394.3,115.1 L438.8,104.2 L483.3,90.5 L527.9,22.0 L572.4,117.9 L616.9,128.8 L661.5,131.5 L706.0,146.6 L706.0,174 Z" fill="#0969da" fill-opacity="0.12"/><polyline points="38.0,169.9 82.5,169.9 127.1,172.6 171.6,171.3 216.1,168.5 260.7,83.6 305.2,137.0 349.7,115.1 394.3,115.1 438.8,104.2 483.3,90.5 527.9,22.0 572.4,117.9 616.9,128.8 661.5,131.5 706.0,146.6" fill="none" stroke="#0969da" stroke-width="2" stroke-linejoin="round" stroke-linecap="round"/><circle cx="527.9" cy="22.0" r="3.5" fill="#0969da"/><text x="527.9" y="13.0" text-anchor="middle" fill="#24292f" font-weight="600">111</text><circle cx="706.0" cy="146.6" r="3.5" fill="#0969da"/><text x="706.0" y="137.6" text-anchor="middle" fill="#24292f" font-weight="600">20</text><text x="38.0" y="192" text-anchor="middle" fill="#57606a">Jun 22</text><text x="216.1" y="192" text-anchor="middle" fill="#57606a">Jul 20</text><text x="394.3" y="192" text-anchor="middle" fill="#57606a">Aug 17</text><text x="572.4" y="192" text-anchor="middle" fill="#57606a">Sep 14</text><text x="706.0" y="192" text-anchor="middle" fill="#57606a">Oct 05</text></g></svg>